<?xml version="1.0" encoding="UTF-8"?>
<svg version="1.1" xmlns="http://www.w3.org/2000/svg" width="2560" height="2560">
<path d="M0 0 C0.72728984 -0.00140232 1.45457967 -0.00280463 2.20390859 -0.00424945 C4.67088967 -0.00776304 7.13780945 -0.00407545 9.60478973 -0.00049198 C11.38698258 -0.00153395 13.16917522 -0.00301433 14.95136738 -0.00489634 C19.89038736 -0.00881974 24.82938801 -0.00644516 29.7684077 -0.00311839 C35.12588993 -0.00059671 40.48336904 -0.0038356 45.84085083 -0.00636172 C55.24429249 -0.00998577 64.64772842 -0.0098563 74.05117035 -0.00731456 C88.03399933 -0.00354523 102.01682344 -0.00545895 115.99965239 -0.00852287 C139.51797526 -0.01349345 163.03629571 -0.01366383 186.55461884 -0.01094615 C187.27145428 -0.01086336 187.98828973 -0.01078056 188.72684747 -0.01069526 C189.44482245 -0.01061233 190.16279744 -0.0105294 190.90252924 -0.01044396 C212.75156589 -0.00792357 234.6006016 -0.00726808 256.44963837 -0.0084666 C257.91117201 -0.00854408 259.37270566 -0.00862124 260.8342393 -0.00869807 C266.70712718 -0.00900852 272.58001506 -0.00932719 278.45290294 -0.00965784 C294.87137041 -0.01057497 311.28983787 -0.01114548 327.70830536 -0.01144397 C328.45604371 -0.01145762 329.20378206 -0.01147126 329.97417914 -0.01148532 C353.810278 -0.01189477 377.64637653 -0.01076684 401.48247528 -0.00859439 C402.25589342 -0.00852414 403.02931156 -0.0084539 403.82616661 -0.00838152 C416.38699764 -0.00723649 428.94782866 -0.00601706 441.50865968 -0.00479134 C491.33037678 0.00006521 541.1520912 -0.0001602 590.97380829 -0.00502193 C603.52821096 -0.00624306 616.08261362 -0.00745409 628.6370163 -0.00859439 C629.40997385 -0.00866484 630.18293141 -0.00873529 630.97931192 -0.00880787 C654.78993673 -0.01096316 678.60056131 -0.0118785 702.41118622 -0.01144397 C703.53197635 -0.0114236 703.53197635 -0.0114236 704.67540871 -0.01140281 C721.07545183 -0.01109037 737.47549491 -0.0104568 753.875538 -0.00953347 C759.74326319 -0.00920431 765.61098838 -0.00889123 771.47871356 -0.00858276 C772.93853094 -0.00850537 774.39834831 -0.00842664 775.85816569 -0.00834656 C797.70299222 -0.00715159 819.54781771 -0.00817208 841.39264411 -0.01069526 C842.46789728 -0.01081945 842.46789728 -0.01081945 843.56487274 -0.01094615 C844.28039332 -0.01102884 844.9959139 -0.01111152 845.73311692 -0.01119671 C869.83308958 -0.01395114 893.93305914 -0.0129462 918.03303146 -0.00766541 C931.94099726 -0.00471878 945.84895664 -0.00455229 959.75692227 -0.00831159 C969.03006387 -0.01054256 978.3032003 -0.00917922 987.57634112 -0.00480682 C992.87106506 -0.00241258 998.1657762 -0.00164643 1003.46049976 -0.0052128 C1008.26714697 -0.00841763 1013.07376992 -0.007108 1017.88041532 -0.00203214 C1019.61815641 -0.00101615 1021.35589946 -0.00171388 1023.09363902 -0.00423808 C1025.43562005 -0.00740138 1027.77751469 -0.00451566 1030.11949158 0 C1031.42148231 0.00006776 1032.72347304 0.00013552 1034.06491804 0.00020533 C1037.05974579 0.12534916 1037.05974579 0.12534916 1039.05974579 1.12534916 C1042.7155575 1.39042313 1046.36521212 1.57020715 1050.02654266 1.73081791 C1055.95905368 2.02465706 1055.95905368 2.02465706 1057.05974579 3.12534916 C1059.34966051 3.26274405 1061.64208909 3.35840066 1063.93474579 3.43784916 C1072.76263342 3.86481103 1081.10276734 5.66160317 1089.69939423 7.61118901 C1094.19191443 8.58980377 1098.72050113 9.3821309 1103.24919891 10.17368901 C1107.95462204 11.02022541 1107.95462204 11.02022541 1109.05974579 12.12534916 C1111.26067332 12.59869933 1113.47117432 13.02767391 1115.68474579 13.43784916 C1138.42968255 17.81145519 1160.41938896 25.58131174 1181.99724579 33.87534916 C1182.7361203 34.15676762 1183.47499481 34.43818608 1184.23625946 34.72813237 C1188.10139308 36.23510777 1191.50640817 37.96650693 1195.05974579 40.12534916 C1197.08503265 40.95802679 1199.12843192 41.7475463 1201.18474579 42.50034916 C1207.27426327 44.78478617 1213.17730587 47.35506183 1219.05974579 50.12534916 C1219.05974579 50.78534916 1219.05974579 51.44534916 1219.05974579 52.12534916 C1219.64747772 52.25659184 1220.23520966 52.38783452 1220.84075165 52.52305424 C1224.31707153 53.46662132 1227.42635595 55.18418174 1230.62224579 56.81284916 C1231.69949921 57.35848515 1231.69949921 57.35848515 1232.79851532 57.91514409 C1234.88902769 58.97866825 1236.97531909 60.04995429 1239.05974579 61.12534916 C1240.0046286 61.61261479 1240.94951141 62.09988041 1241.92302704 62.60191166 C1256.59510283 70.40572181 1270.51671416 79.52029368 1284.05974579 89.12534916 C1284.77098602 89.62792241 1285.48222626 90.13049565 1286.21501923 90.64829838 C1301.40704322 101.41015379 1316.40674282 112.44209221 1330.05974579 125.12534916 C1331.41014306 126.29637678 1332.76419972 127.46320058 1334.12224579 128.62534916 C1338.00502068 131.99411109 1341.5936663 135.62188767 1345.17693329 139.30503666 C1346.93727918 141.18918814 1346.93727918 141.18918814 1349.05974579 142.12534916 C1349.05974579 142.78534916 1349.05974579 143.44534916 1349.05974579 144.12534916 C1349.67849579 144.37284916 1350.29724579 144.62034916 1350.93474579 144.87534916 C1353.41043266 146.33163556 1354.01099581 147.50347423 1355.05974579 150.12534916 C1355.71974579 150.12534916 1356.37974579 150.12534916 1357.05974579 150.12534916 C1357.05974579 150.78534916 1357.05974579 151.44534916 1357.05974579 152.12534916 C1357.71974579 152.12534916 1358.37974579 152.12534916 1359.05974579 152.12534916 C1360.46990204 153.52378666 1360.46990204 153.52378666 1362.12224579 155.50034916 C1365.74779103 159.78369376 1369.52174126 163.9090705 1373.33708954 168.02378666 C1375.05974579 170.12534916 1375.05974579 170.12534916 1375.05974579 172.12534916 C1375.71974579 172.12534916 1376.37974579 172.12534916 1377.05974579 172.12534916 C1382.74899192 177.30358516 1387.15422939 184.14618075 1391.70769501 190.31284916 C1393.94536286 193.33859405 1396.19093411 196.32546507 1398.62615204 199.19566166 C1401.22080691 202.31924297 1403.56626342 205.53723824 1405.87224579 208.87534916 C1406.27894501 209.4515601 1406.68564423 210.02777104 1407.10466766 210.62144291 C1410.05974579 214.88271524 1410.05974579 214.88271524 1410.05974579 217.12534916 C1410.71974579 217.12534916 1411.37974579 217.12534916 1412.05974579 217.12534916 C1413.65260806 219.42887307 1415.11939254 221.72816224 1416.55974579 224.12534916 C1417.45250901 225.58787328 1418.34575283 227.0501041 1419.23943329 228.51206791 C1419.93117645 229.64974614 1419.93117645 229.64974614 1420.63689423 230.81040776 C1422.04739627 233.10525683 1423.48833008 235.37753004 1424.94255829 237.64488041 C1425.40210907 238.36482182 1425.86165985 239.08476323 1426.33513641 239.82652104 C1427.22256941 241.2148207 1428.11437991 242.60033359 1429.01091766 243.98277104 C1432.05974579 248.78921667 1432.05974579 248.78921667 1432.05974579 252.12534916 C1432.71974579 252.12534916 1433.37974579 252.12534916 1434.05974579 252.12534916 C1438.99116634 261.36197814 1443.86874361 270.61323556 1448.50896454 280.00034916 C1449.4537836 281.90426667 1450.4114613 283.80196317 1451.39177704 285.68784916 C1454.22964111 291.16537727 1456.58107659 296.78009735 1458.82512665 302.52085698 C1460.32668169 306.34897606 1461.93251165 310.09338283 1463.68474579 313.81284916 C1465.89901377 318.57494474 1467.55966528 323.419776 1469.15740204 328.41831791 C1470.07375068 331.30489892 1470.07375068 331.30489892 1471.62224579 334.68784916 C1473.21390836 338.4939988 1474.22802738 342.2826794 1475.21599579 346.28159916 C1476.0147688 349.21450934 1476.0147688 349.21450934 1477.45818329 352.19566166 C1479.76070486 357.40693112 1480.87444679 362.97602322 1482.18474579 368.50034916 C1482.7050739 370.67557447 1483.22834659 372.85009827 1483.75505829 375.02378666 C1483.98209442 375.97946537 1484.20913055 376.93514409 1484.44304657 377.91978276 C1484.85331799 380.08244675 1484.85331799 380.08244675 1486.05974579 381.12534916 C1486.55700368 383.56071464 1487.00950281 385.98977606 1487.43474579 388.43784916 C1488.34761189 393.53591648 1489.36374207 398.55080564 1490.68474579 403.56284916 C1491.76426899 407.70754705 1492.43787806 411.6817432 1492.81755829 415.94175541 C1493.0720987 418.23672458 1493.50916105 420.43139587 1493.99724579 422.68784916 C1496.24933828 433.57856508 1497.237986 444.621308 1497.71819305 455.71739018 C1497.83415811 459.54809487 1497.83415811 459.54809487 1499.05974579 463.12534916 C1499.15633742 465.43246594 1499.18497453 467.74249077 1499.18509495 470.05162865 C1499.18649727 470.7774054 1499.18789959 471.50318215 1499.1893444 472.25095213 C1499.19285797 474.71277719 1499.18917042 477.17454081 1499.18558693 479.63636506 C1499.18662891 481.41484443 1499.18810929 483.19332358 1499.1899913 484.97180226 C1499.19391468 489.9005185 1499.19154012 494.82921536 1499.18821334 499.7579313 C1499.18569165 505.10425888 1499.18893056 510.45058333 1499.19145668 515.79691046 C1499.19508072 525.18079702 1499.19495125 534.56467783 1499.19240952 543.94856465 C1499.18864017 557.90236902 1499.19055391 571.8561685 1499.19361782 585.80997284 C1499.19858843 609.27973765 1499.19875876 632.74950004 1499.19604111 656.2192651 C1499.19595831 656.93462691 1499.19587552 657.64998872 1499.19579021 658.38702816 C1499.19570728 659.10352767 1499.19562435 659.82002719 1499.19553891 660.5582388 C1499.19301847 682.36280588 1499.19236306 704.16737202 1499.19356155 725.97193921 C1499.19363903 727.43052556 1499.19371619 728.88911192 1499.19379302 730.34769827 C1499.19410348 736.20876102 1499.19442214 742.06982376 1499.19475279 747.93088651 C1499.19566992 764.31637116 1499.19624043 780.70185581 1499.19653893 797.08734047 C1499.19655257 797.83357895 1499.19656622 798.57981742 1499.19658028 799.34866919 C1499.19698972 823.13710081 1499.19586179 846.92553211 1499.19368935 870.71396363 C1499.1936191 871.48583693 1499.19354885 872.25771024 1499.19347647 873.05297364 C1499.19233144 885.58868641 1499.19111202 898.12439917 1499.1898863 910.66011193 C1499.18502999 960.37956366 1499.18525493 1010.09901269 1499.19011688 1059.8184644 C1499.19133802 1072.34657331 1499.19254905 1084.87468222 1499.19368935 1097.40279114 C1499.19379502 1098.55980658 1499.19379502 1098.55980658 1499.19390283 1099.74019606 C1499.19605822 1123.50231899 1499.19697343 1147.26444169 1499.19653893 1171.02656472 C1499.19651855 1172.14512675 1499.19651855 1172.14512675 1499.19649776 1173.28628599 C1499.19618531 1189.65400246 1499.19555174 1206.02171891 1499.19462842 1222.38943536 C1499.19429926 1228.24565918 1499.19398619 1234.101883 1499.19367771 1239.95810682 C1499.19360032 1241.41505826 1499.19352159 1242.8720097 1499.19344151 1244.32896113 C1499.19224668 1266.1285164 1499.19326678 1287.92807061 1499.19579021 1309.72762574 C1499.19591441 1310.80054426 1499.19591441 1310.80054426 1499.19604111 1311.89513791 C1499.19612379 1312.60910447 1499.19620647 1313.32307103 1499.19629166 1314.05867294 C1499.19904652 1338.11004773 1499.19804029 1362.16141942 1499.19276036 1386.21279388 C1499.18981441 1400.0916662 1499.18964627 1413.9705321 1499.19340654 1427.84940427 C1499.19563834 1437.10442935 1499.19427266 1446.35944927 1499.18990177 1455.61447358 C1499.18750869 1460.89802999 1499.18673905 1466.18157358 1499.19030775 1471.46512961 C1499.19351544 1476.26281427 1499.19219869 1481.06047465 1499.18712709 1485.85815752 C1499.18611213 1487.59153276 1499.18680621 1489.32490997 1499.18933303 1491.05828366 C1499.19250256 1493.3967927 1499.18960461 1495.73521559 1499.18509495 1498.07372051 C1499.18499331 1500.02272911 1499.18499331 1500.02272911 1499.18488962 1502.01111161 C1499.05974579 1505.12534916 1499.05974579 1505.12534916 1498.05974579 1508.12534916 C1497.86862173 1509.69689183 1497.71862633 1511.27363189 1497.59490204 1512.85191166 C1497.47973236 1514.26500615 1497.47973236 1514.26500615 1497.36223602 1515.70664799 C1497.28303925 1516.71106938 1497.20384247 1517.71549077 1497.12224579 1518.75034916 C1496.50761894 1526.15791345 1495.85422672 1533.55400402 1494.99724579 1540.93784916 C1494.91804901 1541.64183842 1494.83885223 1542.34582768 1494.75725555 1543.07114995 C1494.18332563 1547.87818949 1494.18332563 1547.87818949 1493.05974579 1550.12534916 C1492.79818591 1551.46425685 1492.57576775 1552.81097181 1492.37615204 1554.16050541 C1492.19149384 1555.37576909 1492.19149384 1555.37576909 1492.00310516 1556.61558354 C1491.87742157 1557.4644312 1491.75173798 1558.31327885 1491.62224579 1559.18784916 C1490.67571409 1565.57318204 1489.52273778 1571.8363836 1488.05974579 1578.12534916 C1487.39974579 1578.12534916 1486.73974579 1578.12534916 1486.05974579 1578.12534916 C1486.18349579 1579.67222416 1486.18349579 1579.67222416 1486.30974579 1581.25034916 C1486.29951409 1587.11311068 1484.37889995 1592.41872571 1482.68914032 1597.98032963 C1481.47184885 1602.12894207 1480.39933517 1606.31674817 1479.30974579 1610.50034916 C1479.08714081 1611.35153325 1478.86453583 1612.20271733 1478.63518524 1613.07969487 C1478.10869646 1615.0945627 1477.58401942 1617.10990381 1477.05974579 1619.12534916 C1476.39974579 1619.12534916 1475.73974579 1619.12534916 1475.05974579 1619.12534916 C1475.12162079 1619.80597416 1475.18349579 1620.48659916 1475.24724579 1621.18784916 C1475.05502551 1624.19930025 1474.23171715 1626.2163361 1472.97380829 1628.92613041 C1471.83297162 1631.67096394 1471.02287424 1634.46116822 1470.18474579 1637.31284916 C1468.52741845 1642.83727362 1466.50988195 1648.0844077 1464.23162079 1653.37925541 C1462.72005118 1656.92136686 1461.38122943 1660.50865709 1460.05974579 1664.12534916 C1459.39974579 1664.12534916 1458.73974579 1664.12534916 1458.05974579 1664.12534916 C1457.95533173 1664.7943726 1457.85091766 1665.46339604 1457.74333954 1666.15269291 C1456.89944057 1669.82244785 1455.54633621 1673.21470778 1454.12224579 1676.68784916 C1453.85734344 1677.34720463 1453.5924411 1678.0065601 1453.31951141 1678.68589604 C1452.01814755 1681.89894082 1450.67583349 1685.0571247 1449.05974579 1688.12534916 C1448.39974579 1688.12534916 1447.73974579 1688.12534916 1447.05974579 1688.12534916 C1447.05974579 1689.44534916 1447.05974579 1690.76534916 1447.05974579 1692.12534916 C1446.39974579 1692.12534916 1445.73974579 1692.12534916 1445.05974579 1692.12534916 C1444.92777802 1692.7138062 1444.79581024 1693.30226323 1444.65984344 1693.90855229 C1443.72587294 1697.35869557 1442.04362255 1700.45030918 1440.43474579 1703.62534916 C1439.89841522 1704.69003422 1439.89841522 1704.69003422 1439.35124969 1705.77622807 C1436.16331624 1712.04070765 1432.68988489 1718.10673375 1429.05974579 1724.12534916 C1428.56861298 1724.96323979 1428.07748016 1725.80113041 1427.57146454 1726.66441166 C1418.05786657 1742.81957803 1407.03313347 1758.22123461 1395.50115204 1772.99253666 C1393.80174187 1775.17321979 1392.12231049 1777.36075203 1390.46208954 1779.57066166 C1386.4791254 1784.85636675 1382.50864923 1789.9063176 1377.68865204 1794.46909916 C1375.86596039 1796.32238756 1374.36203792 1798.29094744 1372.80974579 1800.37534916 C1369.07405718 1805.3306804 1364.76441914 1809.53267512 1360.31755829 1813.84019291 C1358.03725333 1815.911574 1358.03725333 1815.911574 1357.05974579 1818.12534916 C1356.39974579 1818.12534916 1355.73974579 1818.12534916 1355.05974579 1818.12534916 C1354.81224579 1818.74409916 1354.56474579 1819.36284916 1354.30974579 1820.00034916 C1352.8223421 1822.52893543 1351.6229657 1822.84373921 1349.05974579 1824.12534916 C1348.76326141 1824.73894291 1348.46677704 1825.35253666 1348.16130829 1825.98472416 C1346.8987174 1828.43826958 1345.5597896 1829.6312893 1343.43474579 1831.37534916 C1340.51077263 1833.84096977 1337.78102983 1836.3759853 1335.12224579 1839.12534916 C1331.72542254 1842.57535164 1328.11779404 1845.51071594 1324.25896454 1848.42613041 C1322.21563008 1850.0049057 1320.29309879 1851.65108666 1318.37224579 1853.37534916 C1309.46433462 1861.26978541 1299.91293683 1868.45995522 1290.05974579 1875.12534916 C1289.44099579 1875.55847416 1288.82224579 1875.99159916 1288.18474579 1876.43784916 C1284.30280134 1879.12534916 1284.30280134 1879.12534916 1282.05974579 1879.12534916 C1282.05974579 1879.78534916 1282.05974579 1880.44534916 1282.05974579 1881.12534916 C1279.75622189 1882.71821144 1277.45693271 1884.18499591 1275.05974579 1885.62534916 C1273.59722168 1886.51811238 1272.13499085 1887.41135621 1270.67302704 1888.30503666 C1269.53534882 1888.99677983 1269.53534882 1888.99677983 1268.37468719 1889.7024976 C1266.07983813 1891.11299964 1263.80756491 1892.55393345 1261.54021454 1894.00816166 C1260.82027313 1894.46771245 1260.10033173 1894.92726323 1259.35857391 1895.40073979 C1257.97027425 1896.28817278 1256.58476137 1897.17998328 1255.20232391 1898.07652104 C1250.39587829 1901.12534916 1250.39587829 1901.12534916 1247.05974579 1901.12534916 C1247.05974579 1901.78534916 1247.05974579 1902.44534916 1247.05974579 1903.12534916 C1201.32026683 1927.12534916 1201.32026683 1927.12534916 1195.05974579 1927.12534916 C1195.05974579 1927.78534916 1195.05974579 1928.44534916 1195.05974579 1929.12534916 C1188.29895698 1931.76452752 1181.52864601 1934.33442301 1174.68474579 1936.75034916 C1171.17569185 1937.98975011 1167.70298171 1939.2210034 1164.30974579 1940.75034916 C1160.82096836 1942.22637039 1157.3316795 1943.2738938 1153.68474579 1944.28159916 C1150.90780279 1945.12168358 1150.90780279 1945.12168358 1147.77068329 1946.59409916 C1143.8443064 1948.31414529 1139.86380954 1949.22832672 1135.68474579 1950.12534916 C1129.0079953 1951.61049594 1129.0079953 1951.61049594 1122.49724579 1953.68784916 C1117.28847781 1955.55533381 1111.8511604 1956.35067266 1106.41521454 1957.28159916 C1103.09960873 1957.87770691 1099.88101621 1958.68829756 1096.62615204 1959.55503666 C1089.51303071 1961.36420593 1082.34053294 1962.42187433 1075.07976532 1963.43296635 C1072.82554733 1963.74813987 1070.57356372 1964.07666442 1068.32146454 1964.40659916 C1059.59168182 1965.65762202 1050.94192756 1966.48777929 1042.13103485 1966.89243901 C1039.14729016 1966.92395248 1039.14729016 1966.92395248 1037.05974579 1968.12534916 C1034.74796787 1968.22195063 1032.43328694 1968.25057791 1030.11949158 1968.25069833 C1029.39220174 1968.25210065 1028.66491191 1968.25350296 1027.91558298 1968.25494777 C1025.4486019 1968.25846137 1022.98168212 1968.25477378 1020.51470184 1968.2511903 C1018.732509 1968.25223228 1016.95031636 1968.25371266 1015.1681242 1968.25559467 C1010.22910422 1968.25951807 1005.29010357 1968.25714349 1000.35108387 1968.25381672 C994.99360165 1968.25129503 989.63612254 1968.25453393 984.27864075 1968.25706005 C974.87519909 1968.26068409 965.47176316 1968.26055462 956.06832123 1968.25801289 C942.08549225 1968.25424356 928.10266814 1968.25615728 914.11983919 1968.2592212 C890.60151632 1968.26419178 867.08319586 1968.26436215 843.56487274 1968.26164448 C842.84803729 1968.26156169 842.13120184 1968.26147889 841.39264411 1968.26139359 C840.67466912 1968.26131066 839.95669414 1968.26122773 839.21696234 1968.26114229 C817.36792569 1968.2586219 795.51888997 1968.25796641 773.66985321 1968.25916493 C772.20831956 1968.25924241 770.74678592 1968.25931956 769.28525227 1968.2593964 C763.41236439 1968.25970685 757.53947651 1968.26002552 751.66658863 1968.26035616 C735.24812117 1968.2612733 718.8296537 1968.26184381 702.41118622 1968.2621423 C701.66344787 1968.26215595 700.91570952 1968.26216959 700.14531244 1968.26218365 C676.30921358 1968.2625931 652.47311505 1968.26146517 628.6370163 1968.25929272 C627.86359816 1968.25922247 627.09018002 1968.25915222 626.29332497 1968.25907985 C613.73249394 1968.25793482 601.17166292 1968.25671539 588.6108319 1968.25548967 C538.7891148 1968.25063311 488.96740038 1968.25085852 439.14568329 1968.25572026 C426.59128062 1968.25694139 414.03687795 1968.25815241 401.48247528 1968.25929272 C400.70951772 1968.25936317 399.93656017 1968.25943362 399.14017966 1968.2595062 C375.32955485 1968.26166148 351.51893026 1968.26257683 327.70830536 1968.2621423 C326.58751522 1968.26212192 326.58751522 1968.26212192 325.44408286 1968.26210114 C309.04403975 1968.2617887 292.64399666 1968.26115513 276.24395357 1968.2602318 C270.37622839 1968.25990264 264.5085032 1968.25958956 258.64077801 1968.25928109 C257.18096064 1968.2592037 255.72114326 1968.25912497 254.26132589 1968.25904489 C232.41649936 1968.25784992 210.57167387 1968.2588704 188.72684747 1968.26139359 C187.6515943 1968.26151778 187.6515943 1968.26151778 186.55461884 1968.26164448 C185.83909826 1968.26172716 185.12357767 1968.26180985 184.38637465 1968.26189504 C160.286402 1968.26464946 136.18643244 1968.26364453 112.08646011 1968.25836374 C98.17849432 1968.25541711 84.27053493 1968.25525061 70.3625693 1968.25900991 C61.08942771 1968.26124089 51.81629128 1968.25987755 42.54315045 1968.25550514 C37.24842652 1968.25311091 31.95371537 1968.25234476 26.65899181 1968.25591113 C21.85234461 1968.25911596 17.04572166 1968.25780633 12.23907626 1968.25273047 C10.50133517 1968.25171448 8.76359212 1968.25241221 7.02585256 1968.2549364 C4.68387152 1968.25809971 2.34197688 1968.25521399 0 1968.25069833 C-1.30199073 1968.25063057 -2.60398147 1968.25056281 -3.94542646 1968.250493 C-6.94025421 1968.12534916 -6.94025421 1968.12534916 -8.94025421 1967.12534916 C-10.49013384 1966.92802905 -12.04657671 1966.78095531 -13.60431671 1966.66050541 C-15.02877106 1966.54545659 -15.02877106 1966.54545659 -16.48200226 1966.42808354 C-17.4994754 1966.3488062 -18.51694855 1966.26952885 -19.56525421 1966.18784916 C-36.11212031 1964.8223124 -52.56563324 1963.11991168 -68.66291046 1958.91050541 C-72.46392001 1957.99989407 -76.2805252 1957.30723826 -80.12775421 1956.62534916 C-85.05478442 1955.7421105 -89.71929207 1954.67076716 -94.41681671 1952.93394291 C-97.9755435 1951.79360786 -101.60541715 1951.05327954 -105.25275421 1950.25034916 C-111.55736889 1948.84170361 -117.25959869 1946.93392305 -123.17072296 1944.28159916 C-125.96632786 1943.11446369 -128.69420312 1942.30942372 -131.62775421 1941.56284916 C-135.81157085 1940.49603552 -139.51392252 1939.06788305 -143.41291046 1937.23472416 C-147.75049899 1935.33074404 -152.2354171 1933.83348122 -156.70587921 1932.27378666 C-159.48199596 1931.28806405 -162.21480965 1930.24216667 -164.94025421 1929.12534916 C-164.94025421 1928.46534916 -164.94025421 1927.80534916 -164.94025421 1927.12534916 C-165.95925812 1926.9590601 -165.95925812 1926.9590601 -166.99884796 1926.78941166 C-176.56639333 1924.62940806 -185.46463889 1920.05958161 -193.77228546 1914.98081791 C-197.45637655 1912.82305803 -201.2321782 1910.93834399 -205.06525421 1909.06284916 C-213.71031905 1904.80937976 -221.75304332 1899.94969401 -229.73322296 1894.55503666 C-231.88387574 1893.16187044 -234.06438846 1891.91123268 -236.31525421 1890.68784916 C-239.94619023 1888.70850705 -243.48731678 1886.61643011 -247.00275421 1884.43784916 C-247.94248077 1883.85648198 -248.88220734 1883.27511479 -249.85041046 1882.67613041 C-250.88488312 1881.9084937 -250.88488312 1881.9084937 -251.94025421 1881.12534916 C-251.94025421 1880.46534916 -251.94025421 1879.80534916 -251.94025421 1879.12534916 C-253.03853546 1878.72316166 -253.03853546 1878.72316166 -254.15900421 1878.31284916 C-262.49146211 1874.75517051 -269.70960025 1868.07895048 -276.83869171 1862.53550541 C-278.69073026 1861.09632684 -280.5482413 1859.66408451 -282.41681671 1858.24644291 C-287.34206377 1854.4959456 -291.95958799 1850.49167256 -296.53009796 1846.31675541 C-298.67997233 1844.3620074 -300.86142244 1842.45616061 -303.06525421 1840.56284916 C-306.6484509 1837.45304228 -309.97529703 1834.13301415 -313.27619171 1830.72691166 C-314.86448154 1829.03906193 -314.86448154 1829.03906193 -316.94025421 1828.12534916 C-316.94025421 1827.46534916 -316.94025421 1826.80534916 -316.94025421 1826.12534916 C-317.60025421 1826.12534916 -318.26025421 1826.12534916 -318.94025421 1826.12534916 C-318.94025421 1825.46534916 -318.94025421 1824.80534916 -318.94025421 1824.12534916 C-319.55900421 1823.87784916 -320.17775421 1823.63034916 -320.81525421 1823.37534916 C-323.29094108 1821.91906277 -323.89150424 1820.7472241 -324.94025421 1818.12534916 C-325.60025421 1818.12534916 -326.26025421 1818.12534916 -326.94025421 1818.12534916 C-328.38556671 1816.65659916 -328.38556671 1816.65659916 -330.06525421 1814.62534916 C-332.57449718 1811.66319304 -335.14963326 1808.88617331 -337.94025421 1806.18784916 C-341.42354352 1802.76531491 -344.39447638 1799.12402022 -347.29962921 1795.20347416 C-348.94100278 1793.03102521 -348.94100278 1793.03102521 -351.14337921 1790.98472416 C-352.94025421 1789.12534916 -352.94025421 1789.12534916 -352.94025421 1787.12534916 C-353.60025421 1787.12534916 -354.26025421 1787.12534916 -354.94025421 1787.12534916 C-356.53400421 1785.17613041 -356.53400421 1785.17613041 -358.44025421 1782.43784916 C-362.27222062 1777.02719605 -366.26794729 1771.78259379 -370.35041046 1766.55894291 C-387.38531555 1744.31920977 -402.23722145 1720.06927077 -414.94025421 1695.12534916 C-415.29603546 1694.42893315 -415.65181671 1693.73251713 -416.01837921 1693.0149976 C-426.32522017 1672.78408786 -426.32522017 1672.78408786 -430.13166046 1662.20347416 C-431.10413552 1659.70416627 -432.23704631 1657.30238725 -433.37775421 1654.87534916 C-435.65081123 1649.96063128 -437.3905945 1644.98603156 -439.03791046 1639.83238041 C-439.95425911 1636.94579941 -439.95425911 1636.94579941 -441.50275421 1633.56284916 C-443.09441679 1629.75669953 -444.1085358 1625.96801893 -445.09650421 1621.96909916 C-445.91237908 1618.99735568 -445.91237908 1618.99735568 -447.40900421 1615.80503666 C-449.0707581 1611.81174033 -450.03627923 1607.96242747 -450.94025421 1603.75034916 C-452.13990849 1598.37703009 -453.49639152 1593.21493453 -455.35822296 1588.02769291 C-456.14643464 1585.45145742 -456.36634824 1582.91283002 -456.61725616 1580.23936284 C-456.94558773 1578.09044143 -457.53719655 1576.32628424 -458.30744171 1574.29722416 C-460.52523595 1567.81607158 -461.47904715 1561.12056092 -462.56525421 1554.37534916 C-462.78181671 1553.09402104 -462.99837921 1551.81269291 -463.22150421 1550.49253666 C-464.4187051 1543.20586952 -465.28583112 1536.00191476 -465.70734406 1528.62827885 C-465.78742124 1526.12900101 -465.78742124 1526.12900101 -466.94025421 1524.12534916 C-467.14820118 1521.30940063 -467.31452255 1518.50749805 -467.44025421 1515.68784916 C-467.64158026 1509.82269954 -467.64158026 1509.82269954 -468.94025421 1504.12534916 C-469.03463464 1501.78099149 -469.06548076 1499.43395195 -469.06560338 1497.08769524 C-469.06700569 1496.36202926 -469.06840801 1495.63636328 -469.06985282 1494.88870742 C-469.07335956 1492.43329077 -469.06968226 1489.977936 -469.06609535 1487.52252018 C-469.06713758 1485.74628617 -469.06861815 1483.97005237 -469.07049972 1482.19381905 C-469.07441949 1477.2759992 -469.0720504 1472.3581988 -469.06872177 1467.44037925 C-469.06619836 1462.10412522 -469.06943967 1456.76787431 -469.0719651 1451.43162072 C-469.07558786 1442.06697166 -469.07546045 1432.70232836 -469.07291794 1423.33767903 C-469.06914745 1409.4124965 -469.07106293 1395.48731887 -469.07412625 1381.56213638 C-469.07909601 1358.14012187 -469.07926757 1334.71810978 -469.07654953 1311.29609501 C-469.07646673 1310.58228964 -469.07638394 1309.86848427 -469.07629863 1309.13304843 C-469.07621571 1308.41810732 -469.07613278 1307.70316621 -469.07604733 1306.96656021 C-469.07352663 1285.20712183 -469.0728716 1263.44768439 -469.07406998 1241.68824589 C-469.07414746 1240.23252967 -469.07422461 1238.77681345 -469.07430145 1237.32109723 C-469.0746119 1231.4715397 -469.07493056 1225.62198216 -469.07526121 1219.77242463 C-469.07617833 1203.41932742 -469.07674885 1187.06623021 -469.07704735 1170.71313298 C-469.07706099 1169.96838073 -469.07707464 1169.22362848 -469.0770887 1168.45630798 C-469.07749813 1144.71650724 -469.07637031 1120.97670682 -469.07419777 1097.23690617 C-469.07412752 1096.46664795 -469.07405727 1095.69638972 -469.07398489 1094.90279034 C-469.07283987 1082.39339256 -469.07162044 1069.88399478 -469.07039472 1057.37459701 C-469.06553819 1007.7573338 -469.0657636 958.1400733 -469.07062531 908.5228101 C-469.07184644 896.01980412 -469.07305747 883.51679814 -469.07419777 871.01379216 C-469.07426822 870.24399202 -469.07433867 869.47419188 -469.07441125 868.68106446 C-469.07656663 844.96656471 -469.07748186 821.25206519 -469.07704735 797.53756535 C-469.07703376 796.79335632 -469.07702018 796.04914728 -469.07700618 795.28238646 C-469.07669374 778.94761974 -469.07606017 762.61285305 -469.07513685 746.27808636 C-469.07480769 740.43368081 -469.07449461 734.58927526 -469.07418613 728.74486971 C-469.07410875 727.29086294 -469.07403002 725.83685617 -469.07394994 724.3828494 C-469.07275512 702.6277825 -469.07377516 680.87271666 -469.07629863 659.1176499 C-469.07638143 658.40384453 -469.07646423 657.69003915 -469.07654953 656.95460331 C-469.07663221 656.24210809 -469.07671489 655.52961286 -469.07680008 654.79552687 C-469.07955492 630.79392705 -469.07854875 606.79233033 -469.07326879 582.79073083 C-469.07032285 568.94073659 -469.07015468 555.09074878 -469.07391496 541.2407547 C-469.07614676 532.00501437 -469.07478108 522.76927923 -469.07041019 513.53353968 C-469.06801712 508.26101548 -469.06724746 502.98850412 -469.07081617 497.71598029 C-469.07402388 492.92831837 -469.07270709 488.14068079 -469.06763551 483.35302068 C-469.06662056 481.62327598 -469.06731462 479.89352931 -469.06984145 478.16378616 C-469.07301102 475.83016165 -469.07011299 473.49662348 -469.06560338 471.16300309 C-469.06553562 469.86638345 -469.06546786 468.56976382 -469.06539804 467.23385268 C-468.94025421 464.12534916 -468.94025421 464.12534916 -467.94025421 461.12534916 C-467.68031457 457.48258389 -467.49744838 453.84548144 -467.33478546 450.19761479 C-467.04099277 444.32682627 -467.04099277 444.32682627 -465.94025421 442.12534916 C-465.63563993 439.41699641 -465.37194871 436.71423182 -465.12775421 434.00034916 C-464.35938022 426.15973606 -463.28485356 418.39819045 -462.00275421 410.62534916 C-461.84508575 409.64807866 -461.6874173 408.67080815 -461.52497101 407.66392338 C-460.54296837 401.85263357 -459.23206234 396.22866328 -457.62506866 390.55894291 C-456.81614386 387.68430389 -456.14416804 384.79159094 -455.50275421 381.87534916 C-449.7590888 356.58517843 -449.7590888 356.58517843 -445.44025421 346.68784916 C-443.44733251 341.95466012 -442.20721813 337.09436368 -440.94025421 332.12534916 C-440.28025421 332.12534916 -439.62025421 332.12534916 -438.94025421 332.12534916 C-438.83197296 331.30550541 -438.72369171 330.48566166 -438.61212921 329.64097416 C-437.83028291 325.54991793 -436.59186729 321.78920515 -435.19025421 317.87534916 C-434.78709991 316.74057133 -434.78709991 316.74057133 -434.37580109 315.5828687 C-432.63260092 310.77670512 -430.63885481 306.25014964 -428.23322296 301.73472416 C-426.23098112 297.69394607 -424.62780285 293.50168241 -422.99494171 289.30064213 C-421.77278654 286.16350192 -420.51817469 283.10171102 -418.94025421 280.12534916 C-418.28025421 280.12534916 -417.62025421 280.12534916 -416.94025421 280.12534916 C-416.84873077 279.61745854 -416.75720734 279.10956791 -416.66291046 278.58628666 C-415.64188958 275.10929663 -414.01022073 271.97108879 -412.37775421 268.75034916 C-412.02132843 268.04354008 -411.66490265 267.336731 -411.29767609 266.60850346 C-400.11025341 244.6391776 -386.47626868 224.00447423 -371.94025421 204.12534916 C-371.2323172 203.1561353 -371.2323172 203.1561353 -370.51007843 202.16734135 C-364.09825449 193.42221427 -357.45812451 184.96019528 -350.35529327 176.76695073 C-348.85782806 175.02972573 -347.37822474 173.27840813 -345.90119171 171.52378666 C-340.69022041 165.35227145 -335.42407729 159.39452732 -329.58478546 153.79722416 C-327.8537086 152.2092541 -327.8537086 152.2092541 -326.94025421 150.12534916 C-326.28025421 150.12534916 -325.62025421 150.12534916 -324.94025421 150.12534916 C-324.94025421 149.46534916 -324.94025421 148.80534916 -324.94025421 148.12534916 C-324.28025421 148.12534916 -323.62025421 148.12534916 -322.94025421 148.12534916 C-322.28025421 146.80534916 -321.62025421 145.48534916 -320.94025421 144.12534916 C-320.28025421 144.12534916 -319.62025421 144.12534916 -318.94025421 144.12534916 C-318.94025421 143.46534916 -318.94025421 142.80534916 -318.94025421 142.12534916 C-317.43634796 140.64488041 -317.43634796 140.64488041 -315.37775421 138.93784916 C-312.66542808 136.63806215 -310.09058779 134.31480451 -307.62775421 131.75034916 C-303.91010415 127.9649515 -299.82504618 124.70082475 -295.69416046 121.37925541 C-293.22579742 119.35904907 -290.85779409 117.2752313 -288.50275421 115.12534916 C-280.04051025 107.53333596 -270.58314531 101.11186513 -261.32306671 94.53941166 C-258.2746238 92.37228031 -255.26238128 90.15862811 -252.25275421 87.93784916 C-246.96064983 84.08415106 -241.49316243 80.58807863 -235.94025421 77.12534916 C-234.55798348 76.23981611 -233.17652781 75.35300998 -231.79572296 74.46519291 C-230.34402606 73.53921408 -228.8922035 72.6134322 -227.44025421 71.68784916 C-226.74520782 71.23812748 -226.05016144 70.7884058 -225.33405304 70.3250562 C-220.27995623 67.12534916 -220.27995623 67.12534916 -216.94025421 67.12534916 C-216.94025421 66.46534916 -216.94025421 65.80534916 -216.94025421 65.12534916 C-178.2160523 44.42132042 -178.2160523 44.42132042 -164.69025421 39.50034916 C-160.72069573 38.04484439 -156.95507964 36.31921432 -153.13947296 34.50425541 C-149.45376375 32.91566524 -145.71280864 31.56120036 -141.93561554 30.20713627 C-138.9674687 29.13517779 -136.01597463 28.02553499 -133.06525421 26.90659916 C-121.8382688 22.7010213 -110.91071747 19.076491 -99.09650421 16.97691166 C-95.24092517 16.26938167 -91.63716166 15.09735294 -87.95197296 13.77329838 C-85.01144519 12.8261915 -81.9940059 12.5615994 -78.94025421 12.12534916 C-77.6058049 11.68150682 -76.27943546 11.21299279 -74.95978546 10.72691166 C-69.44769034 8.84801791 -63.86535122 7.92160751 -58.12775421 7.00034916 C-56.10021073 6.66561924 -54.07285841 6.32972881 -52.04572296 5.99253666 C-51.16037872 5.84928959 -50.27503448 5.70604252 -49.36286163 5.55845463 C-46.98526463 5.1649478 -46.98526463 5.1649478 -44.86212921 4.58872807 C-40.86348252 3.62462347 -36.62231321 3.71367479 -32.52033234 3.51988041 C-28.92927368 3.64933079 -28.92927368 3.64933079 -25.94025421 2.12534916 C-23.12395197 1.91390624 -20.32307622 1.7490676 -17.50275421 1.62534916 C-11.43967658 1.3580788 -6.03827842 0.00031425 0 0 Z " fill="#FEFEFE" transform="translate(764.9402542114258,295.8746508359909)"/>
<path d="M0 0 C69.63 0 139.26 0 211 0 C211.33 197.01 211.66 394.02 212 597 C212.66 597 213.32 597 214 597 C214.10634766 596.41677979 214.21269531 595.83355957 214.32226562 595.23266602 C215.09644794 592.68227073 216.13040363 591.3086497 217.84375 589.27734375 C218.42576172 588.57996094 219.00777344 587.88257813 219.60742188 587.1640625 C220.54424805 586.06191406 220.54424805 586.06191406 221.5 584.9375 C222.79179124 583.39463554 224.08345814 581.85166697 225.375 580.30859375 C226.00277344 579.56335449 226.63054687 578.81811523 227.27734375 578.05029297 C229.37565199 575.55290172 231.44148613 573.03025663 233.5 570.5 C240.25865671 562.22970288 247.06012038 553.99451918 253.85253906 545.75195312 C260.91619416 537.17973788 267.9735347 528.60274458 275 520 C280.21589435 513.61400007 285.44534232 507.23944879 290.6875 500.875 C291.28320801 500.15175537 291.87891602 499.42851074 292.49267578 498.68334961 C295.51201894 495.01827197 298.53257134 491.35419767 301.5546875 487.69140625 C302.72407019 486.27352974 303.8933415 484.85556138 305.0625 483.4375 C305.64 482.73705566 306.2175 482.03661133 306.8125 481.31494141 C311.34186763 475.81445095 315.8297251 470.28110187 320.31225586 464.74243164 C323.69621125 460.57259204 327.1364969 456.45759592 330.625 452.375 C334.34445854 448.02199994 337.92707285 443.58557447 341.4375 439.0625 C345.6402584 433.6473786 350.02404409 428.42804834 354.51708984 423.25244141 C358.47005835 418.67579083 362.21465967 413.96320224 365.92138672 409.1862793 C369.50557812 404.58439437 373.22890538 400.11908933 377.01586914 395.68334961 C379.88565249 392.32151553 382.71077326 388.9294585 385.5 385.5 C388.80624255 381.43669297 392.16822853 377.42706372 395.5625 373.4375 C403.61297274 364.32872379 403.61297274 364.32872379 410.51721573 354.39890766 C414.22878114 350.81273112 417.49499623 351.31901314 422.47845459 351.39872742 C423.4496742 351.39445529 424.42089381 351.39018317 425.42154431 351.38578159 C428.68481499 351.37752786 431.94680815 351.40507691 435.20996094 351.43237305 C437.54549631 351.433783 439.88103391 351.43299258 442.21656799 351.43016052 C448.56549537 351.42872291 454.91395274 351.45816921 461.26277065 351.49303031 C467.22290921 351.52107583 473.18302923 351.5261433 479.14322487 351.53128967 C490.94859943 351.54223302 502.75380126 351.57550816 514.55908203 351.62280273 C526.02684668 351.66869737 537.4945644 351.70408971 548.96240234 351.7253418 C549.6692694 351.72665541 550.37613646 351.72796903 551.10442373 351.72932246 C554.65056579 351.73584764 558.19670817 351.74216618 561.74285078 351.74838197 C591.16201191 351.80021618 620.58100411 351.88865415 650 352 C650 354 650 354 647.828125 356.2421875 C646.89484375 357.15226562 645.9615625 358.06234375 645 359 C643.22612967 361.02651247 641.47715205 363.05987287 639.75 365.125 C639.27111328 365.69412109 638.79222656 366.26324219 638.29882812 366.84960938 C634.59502231 371.26171271 630.94899602 375.71980489 627.3125 380.1875 C624.27632634 383.88014364 621.1815003 387.52121788 618.0859375 391.1640625 C615.18755177 394.5805954 612.328449 398.02504838 609.5 401.5 C605.75212202 406.1045358 601.93016556 410.64019191 598.0859375 415.1640625 C595.18755177 418.5805954 592.328449 422.02504838 589.5 425.5 C585.75212202 430.1045358 581.93016556 434.64019191 578.0859375 439.1640625 C575.18755177 442.5805954 572.328449 446.02504838 569.5 449.5 C565.75212202 454.1045358 561.93016556 458.64019191 558.0859375 463.1640625 C555.18755177 466.5805954 552.328449 470.02504838 549.5 473.5 C545.75212202 478.1045358 541.93016556 482.64019191 538.0859375 487.1640625 C535.18755177 490.5805954 532.328449 494.02504838 529.5 497.5 C525.75212202 502.1045358 521.93016556 506.64019191 518.0859375 511.1640625 C515.18755177 514.5805954 512.328449 518.02504838 509.5 521.5 C505.75212202 526.1045358 501.93016556 530.64019191 498.0859375 535.1640625 C495.18755177 538.5805954 492.328449 542.02504838 489.5 545.5 C485.75212202 550.1045358 481.93016556 554.64019191 478.0859375 559.1640625 C475.18755177 562.5805954 472.328449 566.02504838 469.5 569.5 C465.75212202 574.1045358 461.93016556 578.64019191 458.0859375 583.1640625 C455.18755177 586.5805954 452.328449 590.02504838 449.5 593.5 C445.75212202 598.1045358 441.93016556 602.64019191 438.0859375 607.1640625 C435.18755177 610.5805954 432.328449 614.02504838 429.5 617.5 C425.75212202 622.1045358 421.93016556 626.64019191 418.0859375 631.1640625 C415.18755177 634.5805954 412.328449 638.02504838 409.5 641.5 C405.25904934 646.70965702 400.92778392 651.83826473 396.578125 656.95703125 C395.72734375 657.96121094 394.8765625 658.96539063 394 660 C393.51337891 660.50966309 393.02675781 661.01932617 392.52539062 661.54443359 C389.69388154 664.59185048 389.69388154 664.59185048 388.90625 668.5546875 C390.30615033 671.68446467 392.11568442 673.65973543 394.5 676.125 C395.41771482 677.09282894 396.33302577 678.06294217 397.24609375 679.03515625 C397.70870605 679.5264502 398.17131836 680.01774414 398.64794922 680.52392578 C400.72201151 682.78824153 402.63857392 685.17031678 404.5625 687.5625 C407.44848793 691.13828469 410.40444804 694.60401318 413.5 698 C417.41891252 702.29991791 421.09170869 706.75919547 424.75 711.28125 C427.64475711 714.77908151 430.69589539 718.11785404 433.75390625 721.47265625 C436.06187598 724.06962393 438.25555863 726.73404013 440.4375 729.4375 C444.29825137 734.211403 448.37437075 738.73388428 452.53125 743.25 C455.72881296 746.81184229 458.71388343 750.52565833 461.71875 754.25 C464.06718968 757.08099578 466.50909902 759.79383598 469 762.5 C473.01974536 766.87170463 476.79988195 771.37786886 480.53125 775.99609375 C485.02422836 781.4630247 489.70746063 786.76675791 494.35351562 792.10351562 C496.93637434 795.07855218 499.50053398 798.06947036 502.0625 801.0625 C502.55411621 801.63661621 503.04573242 802.21073242 503.55224609 802.80224609 C505.52854933 805.11085385 507.50400146 807.42018917 509.47949219 809.72949219 C515.13305047 816.33711172 520.80008455 822.93230081 526.5 829.5 C533.19445358 837.2136508 539.84022649 844.96834397 546.47949219 852.72949219 C552.13305047 859.33711172 557.80008455 865.93230081 563.5 872.5 C570.19445358 880.2136508 576.84022649 887.96834397 583.47949219 895.72949219 C589.13305047 902.33711172 594.80008455 908.93230081 600.5 915.5 C607.19445358 923.2136508 613.84022649 930.96834397 620.47949219 938.72949219 C626.13305047 945.33711172 631.80008455 951.93230081 637.5 958.5 C644.19445358 966.2136508 650.84022649 973.96834397 657.47949219 981.72949219 C663.13305047 988.33711172 668.80008455 994.93230081 674.5 1001.5 C680.69718678 1008.6406776 686.85377403 1015.81545245 693 1023 C694.58419549 1024.85166343 696.16856363 1026.70316875 697.75463867 1028.55322266 C698.78174731 1029.75433294 699.80543576 1030.95837758 700.82543945 1032.16552734 C702.9177177 1034.632589 704.99951 1036.99951829 707.30859375 1039.26953125 C711.88291856 1043.78863282 711.88291856 1043.78863282 712.26855469 1047.77856445 C712.23665039 1048.755271 712.20474609 1049.73197754 712.171875 1050.73828125 C712.14706055 1051.72481689 712.12224609 1052.71135254 712.09667969 1053.7277832 C712.06477539 1054.47761475 712.03287109 1055.22744629 712 1056 C678.26650507 1056.22897027 644.53320373 1056.40513729 610.79910407 1056.51065329 C606.81504272 1056.52316012 602.8309829 1056.53610336 598.84692383 1056.54931641 C598.05378109 1056.55193951 597.26063836 1056.55456261 596.44346099 1056.55726521 C583.60678136 1056.60075942 570.7705503 1056.67959397 557.93413664 1056.77152796 C544.75930659 1056.86509756 531.58471121 1056.92059903 518.40956253 1056.94088495 C510.28177589 1056.9545956 502.15525717 1056.99786895 494.02786093 1057.07916467 C487.7919181 1057.13835714 481.55693848 1057.14453878 475.3207531 1057.13107681 C472.76532566 1057.13382716 470.20985008 1057.15371007 467.65470886 1057.19205475 C447.31244819 1057.4823454 447.31244819 1057.4823454 442.52461052 1053.80028915 C440.2316714 1051.29527575 438.60781204 1048.97578912 437 1046 C436.18789062 1045.03449219 435.37578125 1044.06898437 434.5390625 1043.07421875 C433.59160156 1041.89279297 433.59160156 1041.89279297 432.625 1040.6875 C429.28185433 1036.55670221 425.88248669 1032.48308125 422.4375 1028.4375 C419.23243556 1024.66926467 416.07311606 1020.87753089 413 1017 C407.16261407 1009.64394456 401.03876082 1002.52395565 394.91015625 995.41015625 C389.85108985 989.53616395 384.86190521 983.63851074 380.0546875 977.5546875 C377.14865173 973.94147953 374.14104418 970.41778263 371.13647461 966.88647461 C368.21982939 963.45409036 365.34299312 959.9939826 362.5 956.5 C357.41824323 950.26083244 352.21105894 944.13108038 347 938 C341.0399173 930.98765442 335.12241205 923.95039195 329.3125 916.8125 C326.2756723 913.1190609 323.18039045 909.47701514 320.08374023 905.83374023 C317.2045468 902.44045891 314.36795763 899.01732214 311.5625 895.5625 C308.10725849 891.31607618 304.57302166 887.14703706 301 883 C296.68071044 877.98680512 292.44902881 872.9146268 288.27734375 867.77734375 C285.71796028 864.65603733 283.11410084 861.57546576 280.5 858.5 C277.14552873 854.55349519 273.82778171 850.58357928 270.5625 846.5625 C267.10725849 842.31607618 263.57302166 838.14703706 260 834 C255.67832458 828.98403597 251.44520959 823.90824892 247.26953125 818.76953125 C242.91494206 813.45558334 238.44921565 808.23473234 234 803 C227.82551217 795.7353957 221.69049874 788.44808741 215.6796875 781.046875 C214.16253021 779.12984433 214.16253021 779.12984433 213 778 C212.505 915.61 212.505 915.61 212 1056 C142.04 1056 72.08 1056 0 1056 C0 707.52 0 359.04 0 0 Z " fill="#4B004B" transform="translate(1214,742)"/>
<path d="M0 0 C1.09117126 0.0015509 2.18234253 0.00310181 3.30657959 0.00469971 C17.66553816 0.02854005 32.02026024 0.1426808 46.375 0.5 C47.0805603 0.51528748 47.78612061 0.53057495 48.51306152 0.54632568 C62.5035326 0.86385925 76.15951826 2.6062644 89.9375 5 C90.92008789 5.16999512 91.90267578 5.33999023 92.91503906 5.51513672 C99.31057759 6.66557303 105.3363064 8.17616144 111.4921875 10.265625 C114.21577917 11.11433628 116.8056792 11.58902029 119.625 12 C126.21561145 13.08730782 132.12076003 15.73632339 138.23681641 18.30175781 C141.6671226 19.70449762 145.14727607 20.97054107 148.625 22.25 C156.39295897 25.13200652 163.87636702 28.34364975 171.25 32.125 C171.25 32.785 171.25 33.445 171.25 34.125 C172.219375 34.351875 173.18875 34.57875 174.1875 34.8125 C178.94229318 36.14734973 183.02811307 38.61675879 187.25 41.125 C187.25 41.785 187.25 42.445 187.25 43.125 C187.96414063 43.38410156 188.67828125 43.64320312 189.4140625 43.91015625 C203.27317208 49.84704754 216.35712827 61.5848755 227.8828125 71.1953125 C229.91545384 72.85228415 231.96906617 74.38527748 234.125 75.875 C237.18180265 78.07589791 239.62610688 80.43382757 242.25 83.125 C243.24 83.95 244.23 84.775 245.25 85.625 C248.10625613 88.00521344 250.77021419 90.35347468 253.25 93.125 C253.25 96.125 253.25 96.125 251.1484375 98.38671875 C250.19195313 99.29035156 249.23546875 100.19398437 248.25 101.125 C247.21305833 102.20695361 246.18474106 103.2972223 245.1640625 104.39453125 C244.62942383 104.96913086 244.09478516 105.54373047 243.54394531 106.13574219 C242.99319336 106.73032227 242.44244141 107.32490234 241.875 107.9375 C241.2984668 108.55915039 240.72193359 109.18080078 240.12792969 109.82128906 C236.66264801 113.56833277 233.24659516 117.34877754 229.9140625 121.21484375 C227.93459874 123.48704511 225.9041683 125.70959872 223.875 127.9375 C220.82141133 131.31440982 217.90570795 134.75717132 215.0625 138.3125 C210.15595269 144.38316662 204.81799383 150.01568915 199.46875 155.6953125 C195.51156577 159.89869141 191.71950245 164.22176864 187.97949219 168.61865234 C186.48757424 170.37183488 184.99423195 172.12378925 183.5 173.875 C182.72765015 174.78064697 182.72765015 174.78064697 181.93969727 175.70458984 C178.55885272 179.65004859 175.09887807 183.50625524 171.5625 187.3125 C168.17475627 190.95913376 164.93102204 194.68117401 161.8125 198.5625 C156.6042286 205.0396957 150.93793198 211.0713465 145.25 217.125 C141.68698356 215.64900655 139.77486982 213.68533986 137.3125 210.75 C134.48964778 207.47674835 131.71800765 204.72600574 128.25 202.125 C127.66347656 201.526875 127.07695313 200.92875 126.47265625 200.3125 C112.28865058 186.35284592 94.30168239 177.84488679 76.25 170.125 C76.25 169.465 76.25 168.805 76.25 168.125 C74.6103125 167.9703125 74.6103125 167.9703125 72.9375 167.8125 C69.5445705 167.39655418 66.40348814 166.64918985 63.125 165.6875 C50.39408344 162.12813508 37.82171788 161.80507423 24.70117188 161.86425781 C21.88649832 161.8749563 19.07246652 161.86431625 16.2578125 161.8515625 C5.41799382 161.84311471 -5.03498798 162.4418653 -15.75 164.125 C-16.58901855 164.25068359 -17.42803711 164.37636719 -18.29248047 164.50585938 C-26.21514803 165.75224599 -33.76925877 167.54838281 -41.296875 170.35546875 C-43.75 171.125 -43.75 171.125 -47.75 171.125 C-47.75 171.785 -47.75 172.445 -47.75 173.125 C-48.33007812 173.36734375 -48.91015625 173.6096875 -49.5078125 173.859375 C-53.25630363 175.46763852 -56.82910377 177.04162296 -60.1875 179.375 C-62.75 181.125 -62.75 181.125 -64.75 181.125 C-64.976875 181.681875 -65.20375 182.23875 -65.4375 182.8125 C-67.11430501 185.76687072 -69.32324352 187.75602343 -71.75 190.125 C-78.61886012 197.82644923 -81.15112198 205.63631094 -81.015625 215.84375 C-80.28525983 224.86590798 -74.0517886 231.07014669 -67.75 237.125 C-62.60418581 241.35940822 -57.27948511 244.59051822 -51.12109375 247.109375 C-48.47170839 248.24420234 -45.9808714 249.58198649 -43.4375 250.9375 C-37.99031628 253.68204257 -32.42678366 255.83758369 -26.6875 257.875 C-25.8730542 258.16866455 -25.0586084 258.4623291 -24.21948242 258.76489258 C-19.06963138 260.54569181 -14.01487464 261.71040182 -8.64477539 262.61083984 C-3.38279518 263.54545487 1.80049437 264.83329518 7 266.0625 C20.07550658 269.10532629 32.97947659 271.98377364 46.34033203 273.42675781 C50.58495999 273.8930718 54.60819986 274.59824397 58.73828125 275.64453125 C61.52204769 276.17704023 64.29206801 276.39417504 67.11474609 276.61987305 C79.39780617 277.66667953 90.59804419 281.25082277 102.25 285.125 C104.13001435 285.73887565 106.01021931 286.35216789 107.890625 286.96484375 C120.44050566 291.08067685 132.90310981 295.43318173 145.25 300.125 C145.25 300.785 145.25 301.445 145.25 302.125 C146.38953125 302.35058594 147.5290625 302.57617188 148.703125 302.80859375 C153.69776191 304.05725298 157.67142204 306.4696451 162 309.1875 C163.471143 310.09960866 164.94501395 311.00733545 166.421875 311.91015625 C167.0622168 312.31113525 167.70255859 312.71211426 168.36230469 313.12524414 C170.31458202 314.15920375 172.09303228 314.68206195 174.25 315.125 C174.25 315.785 174.25 316.445 174.25 317.125 C174.89195312 317.33511719 175.53390625 317.54523438 176.1953125 317.76171875 C180.50318571 319.68428621 184.24227386 322.27363825 188.125 324.9375 C188.959104 325.50919922 189.79320801 326.08089844 190.65258789 326.66992188 C200.35903656 333.43992704 209.93553036 340.75286641 217.25 350.125 C218.06339844 350.93195313 218.87679688 351.73890625 219.71484375 352.5703125 C255.80282924 388.93632562 263.42265214 451.19238917 263.5625 499.75 C263.56545074 500.65385437 263.56840149 501.55770874 263.57144165 502.48895264 C263.58206798 516.84592356 262.61143212 530.52243483 259.74511719 544.62890625 C259.31208285 546.81201428 258.95106846 548.98539207 258.6328125 551.1875 C254.62455618 576.22537509 241.98863425 600.50158314 226.25 620.125 C225.80011719 620.68912598 225.35023438 621.25325195 224.88671875 621.83447266 C207.96535575 642.87036017 186.40659513 660.83101855 162.25 673.125 C161.59 673.125 160.93 673.125 160.25 673.125 C160.25 673.785 160.25 674.445 160.25 675.125 C159.25742188 675.53105469 158.26484375 675.93710938 157.2421875 676.35546875 C153.85658861 677.80534765 150.66899655 679.49480707 147.453125 681.28442383 C139.60274936 685.64031247 131.77972457 688.96575137 123.25 691.73828125 C120.40923073 692.67217542 117.75178472 693.79314643 115.046875 695.06640625 C109.39256465 697.63814676 103.48888566 699.15578544 97.5 700.75 C95.29619199 701.34382515 93.09303972 701.94009051 90.890625 702.5390625 C89.92672852 702.7963916 88.96283203 703.0537207 87.96972656 703.31884766 C85.25231758 704.07377058 85.25231758 704.07377058 82.73413086 705.16162109 C80.09273298 706.18599024 77.65935881 706.68412266 74.86328125 707.125 C73.84169922 707.29 72.82011719 707.455 71.76757812 707.625 C70.70990234 707.79 69.65222656 707.955 68.5625 708.125 C66.47500323 708.45671892 64.38775987 708.79003666 62.30078125 709.125 C61.28161621 709.28814697 60.26245117 709.45129395 59.21240234 709.61938477 C56.45671681 710.08971811 53.73059017 710.63547462 50.99609375 711.21484375 C45.97302732 712.2453455 41.09857755 712.54692747 35.9765625 712.77929688 C33.1889514 712.91867743 30.49532743 713.07555993 27.75561523 713.62768555 C22.64782473 714.35228818 17.57889368 714.30764436 12.42578125 714.328125 C10.68226128 714.33857849 10.68226128 714.33857849 8.90351868 714.34924316 C5.12314265 714.36670906 1.34291482 714.37297447 -2.4375 714.375 C-4.36822357 714.37651062 -4.36822357 714.37651062 -6.33795166 714.37805176 C-74.34041768 714.34201947 -74.34041768 714.34201947 -100.75 705.125 C-103.27092472 704.67217234 -105.78185782 704.26022164 -108.3125 703.875 C-122.43588438 701.530173 -136.05312038 697.16441874 -149.5625 692.5 C-150.36792236 692.22317383 -151.17334473 691.94634766 -152.00317383 691.66113281 C-156.50443387 690.06617957 -160.74857384 688.23513821 -164.97509766 686.00952148 C-167.35210364 684.82494202 -169.8407126 683.9849716 -172.33203125 683.07421875 C-198.36093618 672.85608644 -223.56308072 657.30371248 -245.37207031 639.90136719 C-247.77187639 638.02784221 -247.77187639 638.02784221 -250.71386719 636.46582031 C-254.72686081 633.94229215 -258.01756936 631.69061976 -259.37426758 626.93826294 C-260.2555402 621.38798228 -260.22856563 615.85664547 -260.07421875 610.25146484 C-260.0002598 607.26050637 -260.03282513 604.28423716 -260.078125 601.29296875 C-260.05695243 585.46283312 -260.05695243 585.46283312 -254.390625 578.4609375 C-252.89105034 576.9666061 -251.34777017 575.51384159 -249.75 574.125 C-248.57868164 572.96300365 -247.41095648 571.79734904 -246.25 570.625 C-245.6828125 570.07714844 -245.115625 569.52929688 -244.53125 568.96484375 C-242.44837207 566.8134501 -240.61559703 564.52993806 -238.75 562.1875 C-234.80312327 557.27417914 -230.59051272 552.6925764 -226.25 548.125 C-221.27564639 542.88706803 -216.56507807 537.56396167 -212.0625 531.91015625 C-208.15879988 527.20857148 -203.93734916 522.8031187 -199.7578125 518.34765625 C-196.9077443 515.30705669 -194.14511189 512.20151576 -191.421875 509.046875 C-188.64546597 505.855302 -185.79694386 502.7287813 -182.95703125 499.59375 C-180.35941695 496.68810003 -177.84443973 493.71780639 -175.35546875 490.71875 C-173.6109062 488.98692149 -171.95615436 488.17066216 -169.75 487.125 C-169.26345947 487.63772461 -168.77691895 488.15044922 -168.27563477 488.67871094 C-150.89479801 506.86374477 -132.06269832 521.90089033 -108.3984375 531.0546875 C-105.75 532.125 -105.75 532.125 -102.92578125 533.5703125 C-99.21747153 535.38569659 -95.45837511 536.77227166 -91.5625 538.125 C-90.81218506 538.38700195 -90.06187012 538.64900391 -89.28881836 538.91894531 C-81.12399338 541.73555124 -72.94226791 543.99202492 -64.453125 545.59375 C-62.49853363 545.97788934 -60.55115516 546.3993625 -58.609375 546.84375 C-43.23528353 550.35381655 -28.10635258 551.48475976 -12.375 551.375 C-11.56406891 551.37156586 -10.75313782 551.36813171 -9.91763306 551.36459351 C6.43233803 551.28354054 21.82272686 549.94150242 37.875 546.75 C38.87184814 546.55317627 39.86869629 546.35635254 40.89575195 546.15356445 C47.09671273 544.83656013 52.56521353 542.91507001 58.25 540.125 C61.81744117 538.53947059 63.22858832 538.125 67.25 538.125 C67.25 537.465 67.25 536.805 67.25 536.125 C68.89821091 535.02221874 70.59610625 533.99333689 72.3125 533 C83.14752609 526.26283634 90.72073281 515.41021102 94.25 503.125 C96.23055825 491.21398907 94.20089299 480.98739911 87.25 471.125 C83.41819135 466.84494204 79.16215564 464.04159241 74.25 461.125 C74.25 460.465 74.25 459.805 74.25 459.125 C73.58613281 458.94324219 72.92226563 458.76148438 72.23828125 458.57421875 C71.35527344 458.32285156 70.47226562 458.07148437 69.5625 457.8125 C68.69238281 457.56886719 67.82226562 457.32523438 66.92578125 457.07421875 C64.25 456.125 64.25 456.125 61.93359375 454.6796875 C58.43139848 452.65075923 54.88031845 451.65104951 51 450.5625 C50.28714844 450.35431641 49.57429688 450.14613281 48.83984375 449.93164062 C39.34617393 447.20327966 29.83614203 445.52764511 20.0625 444.125 C18.85215088 443.94912354 17.64180176 443.77324707 16.39477539 443.59204102 C14.03128193 443.24898153 11.6676015 442.90720695 9.30371094 442.56689453 C6.96412268 442.22833883 4.62604519 441.88325239 2.2890625 441.52734375 C-2.95947736 440.7407238 -8.20624681 440.06818434 -13.484375 439.515625 C-27.7071249 438.01020694 -41.56988335 435.82308176 -55.54736328 432.79882812 C-58.78353119 432.11794511 -62.02674613 431.49857409 -65.27734375 430.890625 C-79.073976 428.23665611 -92.30389299 424.6011726 -105.625 420.1875 C-106.37891022 419.94055389 -107.13282043 419.69360779 -107.90957642 419.43917847 C-116.92457219 416.46564841 -125.40764389 413.05428506 -133.81347656 408.63232422 C-136.38511195 407.31229787 -138.92154482 406.20107046 -141.625 405.1875 C-165.72400044 395.88544283 -188.92860623 381.8603114 -206.75 363.125 C-207.39195312 362.46628906 -208.03390625 361.80757812 -208.6953125 361.12890625 C-243.41659833 324.29046885 -250.95014261 271.27709235 -251 222.6875 C-251.00133942 221.90663025 -251.00267883 221.1257605 -251.00405884 220.32122803 C-250.99726157 201.91938233 -249.13682738 184.02232236 -244.75 166.125 C-244.54890625 165.18785156 -244.3478125 164.25070312 -244.140625 163.28515625 C-237.18935542 132.38591523 -220.38460709 103.95749641 -198.75 81.125 C-197.50476563 79.80048828 -197.50476563 79.80048828 -196.234375 78.44921875 C-189.26742457 71.24799952 -181.76974013 65.10407141 -173.75 59.125 C-172.90912842 58.49295654 -172.90912842 58.49295654 -172.05126953 57.84814453 C-162.36071675 50.60215747 -152.16458449 44.27131216 -141.75 38.125 C-140.64495117 37.46757813 -140.64495117 37.46757813 -139.51757812 36.796875 C-137.39402486 35.53903435 -135.261796 34.29768468 -133.125 33.0625 C-132.49867676 32.6924585 -131.87235352 32.32241699 -131.22705078 31.94116211 C-126.82969614 29.44306545 -122.69878136 28.1792106 -117.75 27.125 C-117.75 26.465 -117.75 25.805 -117.75 25.125 C-97.29142721 16.15206783 -77.85085993 8.54810616 -55.75 5.125 C-53.85167161 4.78446017 -51.95529071 4.43258296 -50.0625 4.0625 C-49.35738281 3.92714844 -48.65226563 3.79179688 -47.92578125 3.65234375 C-45.63335623 3.14057534 -45.63335623 3.14057534 -43.04467773 2.13061523 C-29.84970827 -1.8968082 -13.65791198 -0.03434686 0 0 Z " fill="#370037" transform="translate(904.75,1090.875)"/>
<path d="M0 0 C0.66 0.33 1.32 0.66 2 1 C-1.96 4.96 -5.92 8.92 -10 13 C-10.66 12.67 -11.32 12.34 -12 12 C-8.57833482 7.29521038 -4.42094803 3.72346836 0 0 Z " fill="#DBD1DB" transform="translate(843,1270)"/>
</svg>
